<svg xmlns="http://www.w3.org/2000/svg" viewBox="0 0 390 844">
<rect width="390" height="844" fill="#fff4e7"/>
<rect y="666" width="390" height="178" fill="#ead4bc"/>
<rect y="661" width="390" height="7" fill="#d4bda6"/>
<rect x="28" y="172" width="112" height="134" rx="20" fill="#ffffff"/>
<rect x="36" y="180" width="96" height="118" rx="14" fill="#cce8ec"/>
<circle cx="109" cy="203" r="13" fill="#fff2bf"/>
<rect x="80" y="179" width="5" height="121" fill="#ffffff"/>
<rect x="35" y="240" width="98" height="5" fill="#ffffff"/>
<rect x="23" y="301" width="123" height="9" rx="4" fill="#d8b99d"/>
<rect x="284" y="228" width="77" height="22" rx="6" fill="#d5b499"/>
<ellipse cx="318" cy="220" rx="18" ry="9" fill="#98b4a3"/>
<rect x="303" y="194" width="30" height="27" rx="7" fill="#a8c4b4"/>
<rect x="310" y="183" width="16" height="14" rx="3" fill="#a8c4b4"/>
<rect x="18" y="432" width="73" height="228" rx="14" fill="#fefdfa"/>
<rect x="23" y="438" width="63" height="77" rx="10" fill="#f0e5d9"/>
<rect x="73" y="468" width="4" height="23" rx="2" fill="#bda38d"/>
<rect x="73" y="544" width="4" height="35" rx="2" fill="#bda38d"/>
<rect x="285" y="540" width="105" height="121" rx="8" fill="#bfd5bd"/>
<rect x="277" y="535" width="113" height="12" rx="5" fill="#dfbda1"/>
<rect x="301" y="559" width="70" height="6" rx="3" fill="#8eaf96"/>
<rect x="301" y="593" width="70" height="6" rx="3" fill="#8eaf96"/>
<ellipse cx="195" cy="689" rx="126" ry="24" fill="#f6e5d2"/>
</svg>
